<svg width="598" height="550" viewBox="0 0 598 550" fill="none" xmlns="http://www.w3.org/2000/svg">
<path d="M9.8869 341.53L1.18791 409.434C-1.30709 428.915 0.622901 448.743 6.8209 467.282C23.3924 516.85 67.7859 550 117.594 550H129.6C148.328 550 166.85 545.871 183.978 537.876L194.468 532.979C222.913 519.703 254.025 514.05 285.039 516.525L403.523 525.98L460.204 534.456C515.076 542.664 564.134 497.715 564.134 439.226C564.134 431.062 565.122 422.93 567.065 415.028L576.922 375.01C587.229 333.18 589.858 289.656 584.671 246.784L583.531 237.338C580.334 210.935 580.804 184.182 584.922 157.921L597.126 80.0557C599.76 63.2458 596.39 46.0013 587.674 31.6604C573.423 8.2261 547.204 -3.8401 521.235 1.0906L440.548 16.4117C416.107 21.0526 391.037 20.5342 366.788 14.8863L343.475 9.4565C296.853 -1.4018 248.475 -0.639598 202.181 11.6827L175.594 18.7597C163.911 21.8694 151.909 23.4422 139.86 23.4422H123.691C70.4196 23.4422 23.1317 59.436 6.3209 112.781C0.443901 131.429 -1.3671 151.237 1.0229 170.728L10.1449 245.101C14.0719 277.116 13.9849 309.538 9.8869 341.53Z" fill="#FFEFD1"/>
</svg>
