<svg width="110" height="21" viewBox="0 0 110 21" fill="none" xmlns="http://www.w3.org/2000/svg">
<path d="M17.9577 0C19.9014 0.334895 21.7917 0.926391 23.5784 1.75885C26.6619 6.34411 28.1939 11.5155 27.6282 17.4804C25.269 19.2369 22.9806 20.3026 20.7306 21C20.1716 20.2353 19.6778 19.4254 19.2542 18.5789C20.0628 18.2726 20.8423 17.8947 21.5832 17.4499C21.3894 17.3051 21.1993 17.1554 21.0133 17.0009C16.5841 19.0889 11.7134 19.0889 7.23075 17.0009C7.04638 17.1556 6.85563 17.3061 6.66062 17.4499C7.40042 17.8935 8.1785 18.2706 8.9856 18.5766C8.56168 19.423 8.06785 20.2329 7.50921 20.9979C5.26129 20.3004 2.97506 19.2348 0.615808 17.4804C0.133397 12.3351 1.09758 7.11553 4.65477 1.76309C6.44239 0.927973 8.33427 0.335005 10.28 0C10.5242 0.435844 10.8135 1.0222 11.0085 1.48857C13.0657 1.17483 15.142 1.17483 17.2377 1.48857C17.4524 0.980655 17.6927 0.483836 17.9577 0V0ZM72.0176 6.71721C73.5174 6.71721 74.7624 7.03731 75.7526 7.67814V10.47C75.4034 10.2258 74.996 10.0276 74.531 9.87496C74.0661 9.72233 73.5687 9.64601 73.0374 9.64601C72.1075 9.64601 71.3811 9.81836 70.8561 10.1647C70.3309 10.5113 70.0678 10.9624 70.0678 11.5225C70.0678 12.0716 70.3224 12.5208 70.8325 12.8737C71.3428 13.2246 72.0817 13.4011 73.0525 13.4011C73.5517 13.4011 74.0446 13.3269 74.531 13.1811C75.0153 13.0327 75.4332 12.8519 75.7824 12.6384V15.3385C74.6832 16.0098 73.4082 16.3454 71.9574 16.3454C70.7362 16.3412 69.6946 16.1275 68.8353 15.7003C67.9763 15.2732 67.3268 14.6934 66.894 13.9612C66.4612 13.229 66.2425 12.4052 66.2425 11.4899C66.2425 10.5745 66.4676 9.75519 66.9174 9.0338C67.3675 8.31241 68.0274 7.74577 68.8977 7.33367C69.7674 6.92199 70.8067 6.71721 72.0176 6.71721ZM60.7521 6.71509C61.5919 6.71509 62.3613 6.80646 63.0624 6.98961C63.7628 7.17277 64.3414 7.40595 64.8023 7.69129V10.0865C64.3306 9.80097 63.7905 9.57648 63.1737 9.40647C62.5549 9.23847 61.9162 9.15419 61.2747 9.1559C60.3342 9.1559 59.8652 9.31913 59.8652 9.6441C59.8652 9.79673 59.938 9.90994 60.0836 9.98625C60.2292 10.0626 60.497 10.141 60.8849 10.2237L62.3847 10.4984C63.3645 10.6705 64.0949 10.9733 64.5748 11.4049C65.055 11.8365 65.2947 12.475 65.2947 13.3206C65.2947 14.247 64.8988 14.9813 64.1034 15.5261C63.3085 16.0709 62.1812 16.3433 60.7199 16.3433C59.8605 16.3412 59.0253 16.2343 58.2151 16.0207C57.405 15.8072 56.6742 15.4977 56.0251 15.09V12.5581C56.5158 12.9439 57.1736 13.2619 57.9986 13.5126C58.8235 13.7611 59.6208 13.8853 60.3921 13.8853C60.7519 13.8853 61.0244 13.8372 61.2085 13.7414C61.3929 13.6456 61.4853 13.53 61.4853 13.3971C61.4853 13.2445 61.4359 13.1181 61.335 13.0155C61.2343 12.9131 61.0391 12.8281 60.7502 12.7563L58.9502 12.3444C57.9194 12.1004 57.1885 11.7625 56.7538 11.329C56.3186 10.8974 56.1021 10.3307 56.1021 9.62884C56.1021 9.03846 56.2908 8.5263 56.6723 8.08813C57.0514 7.65016 57.5915 7.31226 58.2921 7.07483C58.993 6.83529 59.8113 6.7153 60.7521 6.7153V6.71509ZM109.5 5.05227V16.0359H105.825V14.0377C105.514 14.7896 105.043 15.3626 104.409 15.755C103.774 16.1451 102.99 16.3414 102.06 16.3414C101.229 16.3414 100.505 16.1364 99.8848 15.7245C99.2657 15.3126 98.788 14.7483 98.4516 14.0312C98.1174 13.3142 97.9477 12.5036 97.9477 11.5969C97.9371 10.6621 98.115 9.82302 98.4814 9.0798C98.8459 8.33657 99.3619 7.757 100.026 7.34066C100.691 6.92453 101.449 6.7153 102.3 6.7153C104.021 6.7153 105.184 7.46234 105.793 8.95473L105.825 9.0338V5.05227H109.5ZM82.5623 6.71276C83.7517 6.71276 84.7779 6.91542 85.6373 7.32307C86.4965 7.7305 87.1524 8.28845 87.6023 9.00115C88.0525 9.71385 88.2771 10.5311 88.2771 11.4572C88.2771 12.3726 88.0525 13.2008 87.6023 13.9438C87.1524 14.687 86.4944 15.2709 85.6288 15.6982C84.763 16.1254 83.7409 16.3388 82.5604 16.3388C81.3795 16.3388 80.3574 16.1275 79.4939 15.7003C78.6281 15.2732 77.9683 14.6892 77.5138 13.9459C77.0597 13.2029 76.8304 12.3747 76.8304 11.4593C76.8304 10.5442 77.0574 9.72678 77.5138 9.00984C77.97 8.2929 78.626 7.7305 79.4873 7.32307C80.3465 6.91542 81.3731 6.71276 82.5623 6.71276ZM54.3841 9.21462V16.0838H50.7203V9.21462C51.8428 9.70706 53.2358 9.7289 54.3841 9.21462ZM95.925 6.9133C96.4543 6.9133 96.9086 7.0354 97.2901 7.2794V10.5745C96.9088 10.3195 96.4157 10.1931 95.8052 10.1931C95.0056 10.1931 94.3886 10.4395 93.9598 10.9319C93.5294 11.4246 93.3148 12.1915 93.3148 13.229V16.0359H89.6401V7.11172H93.2401V9.94915C93.4393 8.91169 93.7631 8.14685 94.2087 7.65207C94.6524 7.15963 95.2263 6.9133 95.925 6.9133ZM42.96 5.35732C44.3702 5.35732 45.5615 5.58181 46.5387 6.02847C47.5137 6.47533 48.2446 7.09857 48.7289 7.89607C49.2128 8.69377 49.457 9.6068 49.457 10.6356C49.457 11.6425 49.2043 12.5555 48.6986 13.3727C48.1928 14.1923 47.4234 14.8397 46.3888 15.3166C45.3539 15.794 44.0721 16.0338 42.5401 16.0338H37.1102V5.35732H42.96ZM9.59639 8.76521C8.22707 8.76521 7.14708 10.0185 7.14708 11.5418C7.14708 13.0651 8.2507 14.3161 9.59639 14.3161C10.9657 14.3161 12.0478 13.0651 12.0457 11.5418C12.0691 10.0161 10.9657 8.76521 9.59639 8.76521ZM18.6476 8.76521C17.2783 8.76521 16.1983 10.0185 16.1983 11.5418C16.1983 13.0651 17.302 14.3161 18.6476 14.3161C20.017 14.3161 21.097 13.0651 21.097 11.5418C21.1204 10.0161 20.017 8.76521 18.6476 8.76521ZM82.5604 9.52412C81.9196 9.52412 81.418 9.70494 81.0516 10.0668C80.6876 10.4287 80.5051 10.9124 80.5051 11.5227C80.5051 12.1328 80.6874 12.6231 81.0516 12.9937C81.4161 13.3643 81.9194 13.5516 82.5604 13.5516C83.1899 13.5495 83.6874 13.3643 84.0515 12.9937C84.4162 12.6231 84.6001 12.133 84.6001 11.5225C84.6001 10.9124 84.4179 10.4265 84.0515 10.0668C83.6874 9.70494 83.1899 9.52412 82.5604 9.52412ZM103.8 9.56991C103.181 9.56991 102.686 9.75073 102.315 10.1126C101.944 10.4745 101.76 10.9429 101.76 11.5227C101.76 12.1023 101.944 12.5752 102.315 12.9413C102.686 13.3074 103.174 13.4904 103.785 13.4904C104.404 13.4883 104.901 13.3032 105.276 12.9329C105.652 12.5621 105.838 12.0807 105.838 11.4922C105.838 10.9232 105.656 10.4592 105.291 10.1037C104.927 9.74861 104.428 9.56991 103.8 9.56991ZM42.6922 8.07265H40.8621V13.3206H42.4801C43.4296 13.3206 44.1602 13.0787 44.6701 12.5971C45.1802 12.1131 45.4352 11.4551 45.4352 10.6203C45.4352 9.84655 45.2079 9.22988 44.7538 8.76797C44.2995 8.30584 43.6116 8.07265 42.6922 8.07265ZM52.5539 4.71458C53.5655 4.71458 54.386 5.46374 54.386 6.38821C54.386 7.31247 53.5655 8.06205 52.5539 8.06205C51.5418 8.06205 50.7215 7.31268 50.7215 6.38821C50.7215 5.46395 51.5418 4.71458 52.5539 4.71458Z" fill="white"/>
</svg>
